<svg xmlns="http://www.w3.org/2000/svg" xmlns:xlink="http://www.w3.org/1999/xlink" width="86.353" height="137.1" viewBox="0 0 86.353 137.1">
    <defs>
        <linearGradient id="linear-gradient" x1="-1.898" y1="-1.531" x2="-0.712" y2="-1.531" gradientUnits="objectBoundingBox">
            <stop offset="0" stop-color="#8bb93e"/>
            <stop offset="1" stop-color="#4ca243"/>
        </linearGradient>
        <linearGradient id="linear-gradient-2" x1="-1.6" y1="-0.628" x2="-1.6" y2="-1.309" xlink:href="#linear-gradient"/>
        <linearGradient id="linear-gradient-3" x1="-1.426" y1="-1.186" x2="-0.163" y2="-1.186" xlink:href="#linear-gradient"/>
        <linearGradient id="linear-gradient-4" x1="-0.146" y1="0.5" x2="4.135" y2="0.5" xlink:href="#linear-gradient"/>
        <linearGradient id="linear-gradient-5" x1="-1.581" y1="0.5" x2="4.424" y2="0.5" xlink:href="#linear-gradient"/>
    </defs>
    <g id="Group_176" data-name="Group 176" transform="translate(-162.824 -345.823)">
        <g id="Group_32" data-name="Group 32" transform="translate(60.501 -217.246)">
            <g id="Group_24" data-name="Group 24" transform="translate(121.26 576.286)">
                <path id="Path_101" data-name="Path 101" d="M196.344,607.088a24.15,24.15,0,0,0-37.973,6.272l-.019.018a23.119,23.119,0,0,0,0,32.659,4.115,4.115,0,0,1-5.82,5.82,31.322,31.322,0,0,1,43.812-44.769Z" transform="translate(-143.373 -598.399)" fill="url(#linear-gradient)"/>
            </g>
            <g id="Group_25" data-name="Group 25" transform="translate(133.457 578.377)">
                <path id="Path_102" data-name="Path 102" d="M217.238,611.057c.051.05.1.1.148.153a31.354,31.354,0,0,1-.148,44.145L198,674.594a4.115,4.115,0,1,1-5.82-5.82l19.239-19.239a23.119,23.119,0,0,0,0-32.659c-.108-.108-.217-.212-.328-.317a15.945,15.945,0,0,0-26.347,15.724,4.115,4.115,0,0,1-7.952,2.122,24.174,24.174,0,0,1,39.96-23.818C216.915,610.739,217.079,610.9,217.238,611.057Z" transform="translate(-175.977 -603.987)" fill="url(#linear-gradient-2)"/>
            </g>
            <g id="Group_26" data-name="Group 26" transform="translate(108.043 563.069)">
                <path id="Path_103" data-name="Path 103" d="M176.692,574.928a4.167,4.167,0,0,1-.632.812,4.113,4.113,0,0,1-5.007.627,36.291,36.291,0,0,0-49.711,49.71,4.114,4.114,0,1,1-7.076,4.2,44.518,44.518,0,0,1,60.985-60.985A4.111,4.111,0,0,1,176.692,574.928Z" transform="translate(-108.043 -563.069)" fill="url(#linear-gradient-3)"/>
            </g>
            <g id="Group_29" data-name="Group 29" transform="translate(129.465 577.692)">
                <g id="Group_28" data-name="Group 28" transform="translate(0)">
                    <g id="Group_27" data-name="Group 27">
                        <path id="Path_104" data-name="Path 104" d="M284.389,621.088l.066.066a.568.568,0,0,0,.064.053A1.357,1.357,0,0,0,284.389,621.088Z" transform="translate(-239.84 -614.006)" fill="#008543"/>
                        <path id="Path_105" data-name="Path 105" d="M209.855,609.239c-.275-.254-.553-.5-.836-.735-.3-.262-.614-.508-.931-.746-.474-.362-.955-.7-1.45-1.021-.328-.217-.661-.423-1-.616-.627-.368-1.27-.7-1.921-1.005a2.36,2.36,0,0,0-.222-.1c-.317-.148-.635-.285-.96-.415-.183-.077-.368-.146-.553-.214s-.36-.132-.54-.2c-.362-.129-.725-.243-1.092-.352-.183-.056-.365-.106-.55-.154s-.365-.1-.55-.143-.37-.09-.558-.13q-.349-.079-.7-.143c-.14-.029-.278-.055-.418-.074-.185-.037-.37-.063-.561-.09a23.3,23.3,0,0,0-3.3-.259q-.29,0-.572,0a23.752,23.752,0,0,0-3.41.283c-.188.029-.378.061-.566.1s-.376.069-.561.106a24.783,24.783,0,0,0-3.4.953c-.169.063-.339.127-.505.193a23.528,23.528,0,0,0-2.151.955c-.159.08-.318.164-.474.246-.36.19-.712.389-1.061.6-.153.09-.307.185-.455.281a24.112,24.112,0,0,0-8.467,9.155l-.019.018a23.01,23.01,0,0,0-6.706,14.838,26.505,26.505,0,0,1,44.2-21.6l0,0C209.67,609.06,209.763,609.147,209.855,609.239Z" transform="translate(-165.306 -602.158)" fill="#008543"/>
                    </g>
                </g>
            </g>
            <g id="Group_31" data-name="Group 31" transform="translate(116.274 567.729)">
                <g id="Group_30" data-name="Group 30">
                    <path id="Path_106" data-name="Path 106" d="M190.344,582.912a4.216,4.216,0,0,1-.513.624,4.113,4.113,0,0,1-5.007.627,36.308,36.308,0,0,0-54.763,30.23,37.816,37.816,0,0,1,60.284-31.482Z" transform="translate(-130.046 -575.525)" fill="#008543"/>
                </g>
            </g>
        </g>
        <g id="Group_19" data-name="Group 19" transform="translate(-109.208 151.142)">
            <path id="Path_88" data-name="Path 88" d="M294.867,343a3.093,3.093,0,1,0,2.169.906A2.99,2.99,0,0,0,294.867,343Z" transform="translate(-6.028 -17.372)" fill="#008543"/>
            <path id="Path_89" data-name="Path 89" d="M335.865,343a3.052,3.052,0,1,0,2.193.906A2.99,2.99,0,0,0,335.865,343Z" transform="translate(-18.535 -17.372)" fill="#008543"/>
            <path id="Path_90" data-name="Path 90" d="M325.95,343a3.093,3.093,0,1,0,2.17.906A2.989,2.989,0,0,0,325.95,343Z" transform="translate(-15.51 -17.372)" fill="#008543"/>
            <path id="Path_91" data-name="Path 91" d="M323,307.256a5.076,5.076,0,0,0-3.719,1.55,5.128,5.128,0,0,0-1.55,3.743v7.819a3.092,3.092,0,0,1-3.075,3.075H308.65a3.092,3.092,0,0,1-3.075-3.075V307.256a5.13,5.13,0,0,0-3.743,1.55,5.077,5.077,0,0,0-1.55,3.719v7.844a2.97,2.97,0,0,1-.882,2.17,3.007,3.007,0,0,1-2.193.906H280.376a2.954,2.954,0,0,1-2.17-.906,2.991,2.991,0,0,1-.906-2.17v-4.506a5.128,5.128,0,0,0-1.549-3.742,5.053,5.053,0,0,0-3.719-1.526v9.774a8.383,8.383,0,0,0,8.344,8.343h16.831a8.077,8.077,0,0,0,5.721-2.264,8.064,8.064,0,0,0,5.629,2.26v0h6.1A8.342,8.342,0,0,0,323,320.368Z" transform="translate(0 -6.467)" fill="url(#linear-gradient-4)"/>
            <path id="Path_92" data-name="Path 92" d="M371.164,299.589a13.361,13.361,0,0,0-5.555,4.816,11.858,11.858,0,0,0-1.883,6.46,8.344,8.344,0,0,0,8.32,8.321,8.105,8.105,0,0,0,2.764-.453,2.921,2.921,0,0,1-.619.906,3.009,3.009,0,0,1-2.194.906h-9.655v-.024h-.6a2.993,2.993,0,0,1-2.17-.906,2.949,2.949,0,0,1-.905-2.169V304.357a5.29,5.29,0,0,0-5.268,5.268v10.9c0,3.647-1.789,6.365-5.388,8.129-2.67,1.335-4,3.29-4,5.889v.071a14.187,14.187,0,0,0,10.441-4.029A13.358,13.358,0,0,0,358,324.955a8.062,8.062,0,0,0,3.386.839v.019H372a8.342,8.342,0,0,0,8.345-8.343V297.754A20.639,20.639,0,0,0,371.164,299.589Zm3.909,11.276a3.039,3.039,0,0,1-6.079,0,7.124,7.124,0,0,1,1.6-4.315,7.544,7.544,0,0,1,4.482-2.813Z" transform="translate(-21.958 -3.569)" fill="url(#linear-gradient-5)"/>
            <path id="Path_93" data-name="Path 93" d="M388.559,292.207a3.075,3.075,0,0,0,0-6.151,2.951,2.951,0,0,0-2.169.906,3.05,3.05,0,0,0,0,4.339A2.95,2.95,0,0,0,388.559,292.207Z" transform="translate(-34.61)" fill="#008543"/>
            <path id="Path_94" data-name="Path 94" d="M378.612,292.207a3.005,3.005,0,0,0,2.193-.906,3.109,3.109,0,0,0,0-4.339,3.076,3.076,0,1,0-2.193,5.245Z" transform="translate(-31.575)" fill="#008543"/>
        </g>
    </g>
</svg>
