<svg xmlns="http://www.w3.org/2000/svg" xmlns:xlink="http://www.w3.org/1999/xlink" width="297.826" height="251.562" viewBox="0 0 297.826 251.562">
  <defs>
    <linearGradient id="linear-gradient" x1="0.19" y1="0.506" x2="1.377" y2="0.506" gradientUnits="objectBoundingBox">
      <stop offset="0" stop-color="#8bb93e"/>
      <stop offset="1" stop-color="#4ca243"/>
    </linearGradient>
    <linearGradient id="linear-gradient-2" x1="0.594" y1="0.923" x2="0.594" y2="0.242" xlink:href="#linear-gradient"/>
    <linearGradient id="linear-gradient-3" x1="0.172" y1="0.423" x2="1.435" y2="0.423" xlink:href="#linear-gradient"/>
    <linearGradient id="linear-gradient-4" x1="-0.146" y1="0.5" x2="4.135" y2="0.5" xlink:href="#linear-gradient"/>
    <linearGradient id="linear-gradient-5" x1="-1.581" y1="0.5" x2="4.424" y2="0.5" xlink:href="#linear-gradient"/>
    <linearGradient id="linear-gradient-6" x1="-6.34" y1="0.5" x2="7.12" y2="0.5" xlink:href="#linear-gradient"/>
    <linearGradient id="linear-gradient-7" x1="-7.605" y1="0.5" x2="5.855" y2="0.5" xlink:href="#linear-gradient"/>
    <linearGradient id="linear-gradient-8" x1="-15.789" y1="0.5" x2="8.171" y2="0.5" xlink:href="#linear-gradient"/>
    <linearGradient id="linear-gradient-9" x1="-12.226" y1="0.5" x2="1.234" y2="0.5" xlink:href="#linear-gradient"/>
  </defs>
  <g id="Group_177" data-name="Group 177" transform="translate(-272.032 -100.29)">
    <g id="Group_18" data-name="Group 18">
      <g id="Group_10" data-name="Group 10">
        <path id="Path_82" data-name="Path 82" d="M477.089,143.794a47.962,47.962,0,0,0-75.413,12.456l-.036.036a45.912,45.912,0,0,0,0,64.859A8.173,8.173,0,1,1,390.082,232.7a62.2,62.2,0,0,1,87.007-88.909Z" fill="url(#linear-gradient)"/>
      </g>
      <g id="Group_11" data-name="Group 11">
        <path id="Path_83" data-name="Path 83" d="M478.056,144.729c.1.1.2.2.294.3a62.268,62.268,0,0,1-.294,87.669l-38.208,38.208a8.173,8.173,0,0,1-11.558-11.558L466.5,221.145a45.914,45.914,0,0,0,0-64.859c-.216-.215-.431-.42-.652-.63a31.665,31.665,0,0,0-52.324,31.226,8.172,8.172,0,0,1-15.792,4.214,48.009,48.009,0,0,1,79.358-47.3C477.415,144.1,477.741,144.414,478.056,144.729Z" fill="url(#linear-gradient-2)"/>
      </g>
      <g id="Group_12" data-name="Group 12">
        <path id="Path_84" data-name="Path 84" d="M481.975,123.841a8.312,8.312,0,0,1-1.255,1.613,8.167,8.167,0,0,1-9.945,1.245,72.073,72.073,0,0,0-98.723,98.723A8.17,8.17,0,1,1,358,233.759,88.411,88.411,0,0,1,479.112,112.646,8.165,8.165,0,0,1,481.975,123.841Z" fill="url(#linear-gradient-3)"/>
      </g>
      <g id="Group_15" data-name="Group 15">
        <g id="Group_14" data-name="Group 14">
          <g id="Group_13" data-name="Group 13">
            <path id="Path_85" data-name="Path 85" d="M476.659,143.4l.131.131a1.273,1.273,0,0,0,.126.1A2.731,2.731,0,0,0,476.659,143.4Z" fill="#008543"/>
            <path id="Path_86" data-name="Path 86" d="M476.659,143.4c-.547-.505-1.1-.993-1.66-1.461-.6-.52-1.219-1.009-1.85-1.481-.94-.72-1.9-1.393-2.879-2.028-.651-.431-1.313-.841-1.98-1.224-1.245-.73-2.522-1.4-3.814-2-.147-.073-.289-.141-.441-.2-.631-.294-1.261-.568-1.907-.825-.363-.152-.731-.289-1.1-.425s-.715-.263-1.072-.389c-.72-.258-1.439-.484-2.17-.7-.362-.11-.725-.21-1.092-.305s-.725-.2-1.093-.283-.736-.179-1.109-.258q-.693-.157-1.386-.283c-.279-.058-.552-.111-.831-.148-.367-.073-.735-.126-1.113-.178a46.256,46.256,0,0,0-6.546-.515c-.383-.005-.762-.005-1.135,0a47.171,47.171,0,0,0-6.771.562c-.373.058-.752.121-1.125.189s-.746.137-1.113.21a49.165,49.165,0,0,0-6.756,1.892c-.337.126-.673.252-1,.383-1.45.557-2.873,1.193-4.271,1.9-.315.157-.63.325-.94.488-.715.378-1.413.772-2.107,1.193-.3.178-.609.367-.9.557a47.882,47.882,0,0,0-16.817,18.182l-.036.036a45.7,45.7,0,0,0-13.318,29.467,52.637,52.637,0,0,1,87.769-42.894l.006.005C476.291,143.037,476.475,143.211,476.659,143.4Z" fill="#008543"/>
          </g>
        </g>
      </g>
      <g id="Group_17" data-name="Group 17">
        <g id="Group_16" data-name="Group 16">
          <path id="Path_87" data-name="Path 87" d="M481.739,124.214a8.382,8.382,0,0,1-1.019,1.24,8.167,8.167,0,0,1-9.945,1.245,72.106,72.106,0,0,0-108.757,60.036,75.1,75.1,0,0,1,119.721-62.521Z" fill="#008543"/>
        </g>
      </g>
    </g>
    <g id="Group_21" data-name="Group 21">
      <g id="Group_19" data-name="Group 19">
        <path id="Path_88" data-name="Path 88" d="M296.217,343a4.451,4.451,0,1,0,3.121,1.3A4.3,4.3,0,0,0,296.217,343Z" fill="#008543"/>
        <path id="Path_89" data-name="Path 89" d="M337.215,343a4.391,4.391,0,1,0,3.156,1.3A4.3,4.3,0,0,0,337.215,343Z" fill="#008543"/>
        <path id="Path_90" data-name="Path 90" d="M327.3,343a4.451,4.451,0,1,0,3.122,1.3A4.3,4.3,0,0,0,327.3,343Z" fill="#008543"/>
        <path id="Path_91" data-name="Path 91" d="M345.379,307.256a7.3,7.3,0,0,0-5.351,2.23,7.379,7.379,0,0,0-2.23,5.386v11.252a4.449,4.449,0,0,1-4.425,4.425h-8.649a4.449,4.449,0,0,1-4.425-4.425V307.256a7.381,7.381,0,0,0-5.386,2.23,7.306,7.306,0,0,0-2.23,5.351v11.287a4.274,4.274,0,0,1-1.269,3.122,4.327,4.327,0,0,1-3.156,1.3H284.039a4.251,4.251,0,0,1-3.122-1.3,4.3,4.3,0,0,1-1.3-3.122V319.64a7.38,7.38,0,0,0-2.229-5.385,7.272,7.272,0,0,0-5.352-2.2v14.065a12.063,12.063,0,0,0,12.007,12.006h24.219a11.623,11.623,0,0,0,8.233-3.258,11.6,11.6,0,0,0,8.1,3.252v.006h8.782a12,12,0,0,0,12.006-12.006Z" fill="url(#linear-gradient-4)"/>
        <path id="Path_92" data-name="Path 92" d="M383.084,300.395a19.226,19.226,0,0,0-7.994,6.93,17.063,17.063,0,0,0-2.709,9.3,12.006,12.006,0,0,0,11.972,11.973,11.663,11.663,0,0,0,3.978-.652,4.2,4.2,0,0,1-.891,1.3,4.329,4.329,0,0,1-3.157,1.3H370.39v-.034h-.858a4.307,4.307,0,0,1-3.122-1.3,4.243,4.243,0,0,1-1.3-3.121V307.256a7.612,7.612,0,0,0-7.581,7.581v15.678c0,5.248-2.574,9.159-7.753,11.7-3.842,1.921-5.763,4.734-5.763,8.474v.1a20.414,20.414,0,0,0,15.024-5.8,19.222,19.222,0,0,0,5.112-8.1,11.6,11.6,0,0,0,4.873,1.208v.027h15.264a12,12,0,0,0,12.008-12.006v-28.37A29.7,29.7,0,0,0,383.084,300.395Zm5.625,16.226a4.374,4.374,0,0,1-8.747,0,10.252,10.252,0,0,1,2.3-6.209,10.855,10.855,0,0,1,6.449-4.048Z" fill="url(#linear-gradient-5)"/>
        <path id="Path_93" data-name="Path 93" d="M389.909,294.907a4.426,4.426,0,0,0,0-8.851,4.246,4.246,0,0,0-3.121,1.3,4.388,4.388,0,0,0,0,6.243A4.246,4.246,0,0,0,389.909,294.907Z" fill="#008543"/>
        <path id="Path_94" data-name="Path 94" d="M379.962,294.907a4.324,4.324,0,0,0,3.156-1.3,4.474,4.474,0,0,0,0-6.243,4.427,4.427,0,1,0-3.156,7.547Z" fill="#008543"/>
      </g>
      <g id="Group_20" data-name="Group 20">
        <path id="Path_95" data-name="Path 95" d="M420.9,290.1a11.654,11.654,0,0,0-11.663,11.664v24.6a12.055,12.055,0,0,0,3.5,8.509,11.332,11.332,0,0,0,8.164,3.361c.515,0,.995-.034,1.51-.069a12.441,12.441,0,0,0,1.921,2.436l.068.069a4.761,4.761,0,0,0,5.352.926,4.355,4.355,0,0,0,2.813-4.391v-.446a4.194,4.194,0,0,1-3.087-1.269c-.172-.172-.309-.344-.481-.515l.1-.1c.035-.035.035-.07.069-.1a11.079,11.079,0,0,0,3.4-8.2v-24.8A11.713,11.713,0,0,0,420.9,290.1Zm4.357,36.466a4.374,4.374,0,0,1-8.747,0v-24.8a4.374,4.374,0,1,1,8.747,0Z" fill="url(#linear-gradient-6)"/>
        <path id="Path_96" data-name="Path 96" d="M450.4,298.474a11.654,11.654,0,0,0-11.664,11.664h1.235a10.265,10.265,0,0,0,7.376-3.122c0-.034,0-.034.034-.034a4.45,4.45,0,0,1,2.984-1.2,4.163,4.163,0,0,1,3.225,1.372,4.547,4.547,0,0,1,1.166,3.054v2.916l-7.2,1.406c-5.831,1.749-8.782,5.523-8.816,11.355a12.08,12.08,0,0,0,3.4,8.85,11.346,11.346,0,0,0,8.268,3.4,11.149,11.149,0,0,0,6.689-2.093,5.255,5.255,0,0,0,3.67,1.51h1.3V310.138A11.715,11.715,0,0,0,450.4,298.474Zm4.356,27.41a4.92,4.92,0,0,1-1.269,3.67,4.307,4.307,0,0,1-6.175,0,4.938,4.938,0,0,1-1.3-3.67c0-1.784.96-3.156,2.916-4.083l5.831-1.166Z" fill="url(#linear-gradient-7)"/>
        <path id="Path_97" data-name="Path 97" d="M473.765,301.39a3.867,3.867,0,0,0-3.259-1.749h-2.264V338.13h2.23a5.038,5.038,0,0,0,5.043-5.042V311.3a4.291,4.291,0,0,1,1.407-3.19,4.478,4.478,0,0,1,3.052-1.166h1.373v-7.307h-1.441A11.16,11.16,0,0,0,473.765,301.39Z" fill="url(#linear-gradient-8)"/>
        <path id="Path_98" data-name="Path 98" d="M499.186,298.543a11.293,11.293,0,0,0-8.164,3.328,12.11,12.11,0,0,0-3.5,8.507V326.3a12.11,12.11,0,0,0,3.5,8.507,11.663,11.663,0,0,0,19.827-8.335h-3.6a5.152,5.152,0,0,0-4.391,2.4,5.215,5.215,0,0,1-.583.686,4.314,4.314,0,0,1-6.278-.1,4.512,4.512,0,0,1-1.2-3.052v-4.872h16.054v-11.32a11.653,11.653,0,0,0-11.663-11.664Zm4.357,15.677H494.8v-4.013a4.374,4.374,0,1,1,8.748,0Z" fill="#008543"/>
        <path id="Path_99" data-name="Path 99" d="M528.69,298.543a11.293,11.293,0,0,0-8.164,3.328,12.11,12.11,0,0,0-3.5,8.507V326.3a12.11,12.11,0,0,0,3.5,8.507,11.663,11.663,0,0,0,19.827-8.335h-3.6a5.152,5.152,0,0,0-4.391,2.4,5.217,5.217,0,0,1-.583.686,4.314,4.314,0,0,1-6.278-.1,4.517,4.517,0,0,1-1.2-3.052v-4.872h16.054v-11.32a11.653,11.653,0,0,0-11.663-11.664Zm4.357,15.677H524.3v-4.013a4.374,4.374,0,1,1,8.748,0Z" fill="#008543"/>
        <path id="Path_100" data-name="Path 100" d="M566.427,303.071a11.112,11.112,0,0,0-8.233-3.43,11.751,11.751,0,0,0-4.391.823v-5.386a5.038,5.038,0,0,0-5.042-5.043h-2.23v48.1h2.264a3.865,3.865,0,0,0,3.258-1.75,11.074,11.074,0,0,0,6.141,1.75,11.654,11.654,0,0,0,11.664-11.663V311.3A11.111,11.111,0,0,0,566.427,303.071Zm-3.876,23.4a4.374,4.374,0,0,1-8.748,0V311.235a4.13,4.13,0,0,1,1.3-3.018,4.357,4.357,0,0,1,7.444,3.087Z" fill="url(#linear-gradient-9)"/>
      </g>
    </g>
  </g>
</svg>
